<svg xmlns="http://www.w3.org/2000/svg" viewbox="0 0 595.28 595.28"><path d="M336.638 235.424c-7.417-10.119-6.522-29.986 24.91-43.566 36.812-15.903 67.694 13.507 67.694 13.507s-14.844-10.204-34.189 14.183c-19.6 24.706-41.592 38.827-58.415 15.876z" fill="#8fbd56"/><path d="M361.548 191.857c-29.76 12.858-32.132 31.337-26.007 41.856 9.496-11.174 23.43-24.278 42.284-33.777 0 0 27.353-9.428 50.698 5.017.467.241.719.412.719.412s-30.883-29.411-67.694-13.508z" fill="#79b453"/><path d="M377.825 199.937c2.084-1.005-47.552 23.138-62.38 81.204l-2.492-5.615c0-.001 9.983-50.875 64.872-75.589z" fill="#6ea54e"/><path d="M274.23 289.706c10.33-12.02 11.144-37.128-27.118-57.301-44.808-23.625-86.575 10.4-86.575 10.4s19.69-11.402 41.674 21.202c22.271 33.029 48.59 52.962 72.019 25.699z" fill="#8fbd56"/><path d="M220.235 242.804c24.78 14.071 46.92 36.428 55.234 45.316 9.084-12.537 8.304-36.387-28.356-55.716-44.808-23.625-86.575 10.4-86.575 10.4s1.935-1.119 5.267-1.654c35.622-10.605 54.43 1.654 54.43 1.654z" fill="#79b453"/><path d="M221.052 243.189c-3.013-1.453 65.168 32.449 86.609 116.411l5.292-9.904c0-.001-12.532-70.77-91.901-106.507z" fill="#6ea54e"/><path d="M294.707 324.005a190.303 190.303 0 0112.954 35.595l3.598-6.732a861.428 861.428 0 01-.37-11.221c-2.295-7.597-6.863-19.859-15.286-33.71a694.316 694.316 0 00-.896 16.068zM312.954 275.525l2.491 5.615a126.023 126.023 0 015.689-17.04c.186-3.817.379-7.654.609-11.588-6.848 13.149-8.789 23.013-8.789 23.013z" fill="#5d9043"/><path d="M326.944 447.954s-25.794-100.308 0-294.121c0 0-46.429 151.869-19.671 294.121" fill="#6ea54e"/><path d="M322.267 193.273a1419.324 1419.324 0 014.678-39.439s-4.687 15.358-10.221 40.823a50.587 50.587 0 005.543-1.384z" fill="#5d9043"/><path d="M318.027 188.743s37.965-2.542 32.291-38.15c-5.672-35.608 7.839-67.387 7.839-67.387s-37.402 50.519-40.13 105.537z" fill="#8fbd56"/><path d="M340.073 135.974c-1.994-20.667 18.084-52.769 18.084-52.769s-40.13 44.522-40.13 105.537c0 .001 24.04-32.1 22.046-52.768z" fill="#79b453"/><path d="M176.378 514.118h263.28c-4.261-10.567-14.465-18.094-26.479-18.448.505-2.44.775-4.968.775-7.559 0-20.463-16.589-37.052-37.052-37.052a36.903 36.903 0 00-23.546 8.443c-1.154-13.198-12.219-23.556-25.717-23.556-4.703 0-9.1 1.277-12.897 3.473-7.245-13.347-21.383-22.409-37.638-22.409-23.635 0-42.795 19.161-42.795 42.796 0 2.087.2 4.121.488 6.128-.981-.051-1.95-.148-2.943-.148-28.333 0-51.697 21.037-55.476 48.332z" fill="#b96633"/><circle cx="266.892" cy="460.739" r="12.463" fill="#985531"/><circle cx="295.806" cy="468.218" r="7.478" fill="#985531"/><circle cx="379.327" cy="486.93" r="11.235" fill="#985531"/><circle cx="206.073" cy="497.927" r="7.478" fill="#985531"/></svg>